<svg width="48" height="48" viewBox="0 0 48 48" fill="none" xmlns="http://www.w3.org/2000/svg">
<rect x="0.5" y="0.5" width="47" height="47" rx="23.5" stroke="white"/>
<path d="M36 19V31" stroke="white" stroke-width="1.5" stroke-linecap="round"/>
<path d="M12 18.9999C15.5322 4.25263 17.4475 4.54718 19.5789 19C21.7319 3.75644 25.8951 4.92133 27.1579 18.9995H36" stroke="white" stroke-width="1.5" stroke-linecap="round"/>
<ellipse cx="16.5602" cy="23.04" rx="1.36" ry="2.04" fill="white"/>
<path d="M23.5198 23.04C23.5198 24.1667 22.9109 25.08 22.1598 25.08C21.4087 25.08 20.7998 24.1667 20.7998 23.04C20.7998 21.9133 21.4087 21 22.1598 21C22.9109 21 23.5198 21.9133 23.5198 23.04Z" fill="white"/>
<path d="M36 31C33.6 41.6667 32.4 41.6667 30 31" stroke="white" stroke-width="1.5" stroke-linecap="round"/>
<path d="M30 31C27.2 41.6667 25.8 41.6667 23 31" stroke="white" stroke-width="1.5" stroke-linecap="round"/>
</svg>
